<svg xmlns="http://www.w3.org/2000/svg" xmlns:xlink="http://www.w3.org/1999/xlink" width="90.585" height="90.585" viewBox="0 0 90.585 90.585">
  <defs>
    <filter id="Path_2" x="0" y="0" width="90.585" height="90.585" filterUnits="userSpaceOnUse">
      <feOffset dy="3" input="SourceAlpha"/>
      <feGaussianBlur stdDeviation="3" result="blur"/>
      <feFlood flood-opacity="0.102"/>
      <feComposite operator="in" in2="blur"/>
      <feComposite in="SourceGraphic"/>
    </filter>
  </defs>
  <g id="Group_53" data-name="Group 53" transform="translate(-553 -231)">
    <g id="Group_1" data-name="Group 1" transform="translate(36.292 107)">
      <g transform="matrix(1, 0, 0, 1, 516.71, 124)" filter="url(#Path_2)">
        <path id="Path_2-2" data-name="Path 2" d="M12,0H39.326a12,12,0,0,1,12,12V39.326a12,12,0,0,1-12,12H12a12,12,0,0,1-12-12V12A12,12,0,0,1,12,0Z" transform="translate(45.29 6) rotate(45)" fill="#7c59ff"/>
      </g>
    </g>
    <path id="key" d="M18,6.188a6.191,6.191,0,0,1-7.342,6.08l-.844.95a.844.844,0,0,1-.631.283H7.875v1.406a.844.844,0,0,1-.844.844H5.625v1.406A.844.844,0,0,1,4.781,18H.844A.844.844,0,0,1,0,17.156V14.412a.844.844,0,0,1,.247-.6L5.935,8.127A6.188,6.188,0,1,1,18,6.188ZM11.813,4.5A1.688,1.688,0,1,0,13.5,2.813,1.687,1.687,0,0,0,11.813,4.5Z" transform="translate(589 264)" fill="#fff"/>
  </g>
</svg>
